<svg xmlns="http://www.w3.org/2000/svg" version="1.1" xmlns:xlink="http://www.w3.org/1999/xlink" xmlns:svgjs="http://svgjs.dev/svgjs" width="2000" height="1500" viewBox="0 0 2000 1500"><rect width="2000" height="1500" fill="#ffffff"></rect><g transform="matrix(0.75,0,0,0.75,249.090909090909,547.1191748216471)"><svg viewBox="0 0 396 107" data-background-color="#ffffff" preserveAspectRatio="xMidYMid meet" height="540" width="2000" xmlns="http://www.w3.org/2000/svg" xmlns:xlink="http://www.w3.org/1999/xlink"><g id="tight-bounds" transform="matrix(1,0,0,1,0.2400000000000091,0.10061307181175039)"><svg viewBox="0 0 395.52 106.79877385637649" height="106.79877385637649" width="395.52"><g><svg viewBox="0 0 395.52000000000004 106.7987738563765" height="106.79877385637649" width="395.52"><g transform="matrix(1,0,0,1,0,66.00592679755296)"><svg viewBox="0 0 395.52000000000004 40.79284705882353" height="40.79284705882353" width="395.52000000000004"><g id="textblocktransform"><svg viewBox="0 0 395.52000000000004 40.79284705882353" height="40.79284705882353" width="395.52000000000004" id="textblock"><g><svg viewBox="0 0 395.52000000000004 40.79284705882353" height="40.79284705882353" width="395.52000000000004"><g transform="matrix(1,0,0,1,0,0)"><svg width="395.52000000000004" viewBox="1.4 -38.8 382.47 39.449999999999996" height="40.79284705882353" data-palette-color="#8abe53"><path d="M23.25-23.5L23.25-23.5Q21.15-16.8 19-11.1 16.85-5.4 14.7 0L14.7 0 9.85 0Q7.2-7.65 5.18-16.15 3.15-24.65 1.4-34.65L1.4-34.65 6.5-34.65Q7.2-30.75 7.95-26.85 8.7-22.95 9.5-19.28 10.3-15.6 11.1-12.25 11.9-8.9 12.75-6.05L12.75-6.05Q14.75-11.3 17-17.57 19.25-23.85 21.2-30.55L21.2-30.55 25.4-30.55Q27.35-23.85 29.65-17.57 31.95-11.3 33.95-6.05L33.95-6.05Q34.75-8.85 35.55-12.2 36.35-15.55 37.13-19.23 37.9-22.9 38.65-26.83 39.4-30.75 40.1-34.65L40.1-34.65 45.05-34.65Q43.25-24.65 41.23-16.15 39.2-7.65 36.6 0L36.6 0 31.75 0Q29.55-5.4 27.45-11.1 25.35-16.8 23.25-23.5ZM47.9-12.95L47.9-12.95Q47.9-16.4 48.9-18.98 49.9-21.55 51.55-23.25 53.2-24.95 55.35-25.8 57.5-26.65 59.75-26.65L59.75-26.65Q65-26.65 67.8-23.38 70.6-20.1 70.6-13.4L70.6-13.4Q70.6-13.1 70.6-12.63 70.6-12.15 70.55-11.75L70.55-11.75 52.75-11.75Q53.05-7.7 55.1-5.6 57.15-3.5 61.5-3.5L61.5-3.5Q63.95-3.5 65.62-3.93 67.3-4.35 68.15-4.75L68.15-4.75 68.8-0.85Q67.95-0.4 65.82 0.1 63.7 0.6 61 0.6L61 0.6Q57.6 0.6 55.12-0.43 52.65-1.45 51.05-3.25 49.45-5.05 48.67-7.53 47.9-10 47.9-12.95ZM52.85-15.5L65.75-15.5Q65.8-18.65 64.17-20.68 62.55-22.7 59.7-22.7L59.7-22.7Q58.1-22.7 56.87-22.08 55.65-21.45 54.8-20.45 53.95-19.45 53.47-18.15 53-16.85 52.85-15.5L52.85-15.5ZM96.55-23.5L96.55-23.5Q94.45-16.8 92.3-11.1 90.15-5.4 88 0L88 0 83.15 0Q80.5-7.65 78.47-16.15 76.45-24.65 74.7-34.65L74.7-34.65 79.8-34.65Q80.5-30.75 81.25-26.85 82-22.95 82.8-19.28 83.6-15.6 84.4-12.25 85.2-8.9 86.05-6.05L86.05-6.05Q88.05-11.3 90.3-17.57 92.55-23.85 94.5-30.55L94.5-30.55 98.7-30.55Q100.65-23.85 102.95-17.57 105.25-11.3 107.25-6.05L107.25-6.05Q108.05-8.85 108.85-12.2 109.65-15.55 110.42-19.23 111.2-22.9 111.95-26.83 112.7-30.75 113.4-34.65L113.4-34.65 118.35-34.65Q116.55-24.65 114.52-16.15 112.5-7.65 109.9 0L109.9 0 105.05 0Q102.85-5.4 100.75-11.1 98.65-16.8 96.55-23.5ZM131.09-3.35L131.09-3.35Q132.74-3.35 134.02-3.43 135.29-3.5 136.14-3.7L136.14-3.7 136.14-11.45Q135.64-11.7 134.52-11.88 133.39-12.05 131.79-12.05L131.79-12.05Q130.74-12.05 129.57-11.9 128.39-11.75 127.42-11.28 126.44-10.8 125.79-9.98 125.14-9.15 125.14-7.8L125.14-7.8Q125.14-5.3 126.74-4.33 128.34-3.35 131.09-3.35ZM130.69-26.65L130.69-26.65Q133.49-26.65 135.42-25.93 137.34-25.2 138.52-23.88 139.69-22.55 140.19-20.73 140.69-18.9 140.69-16.7L140.69-16.7 140.69-0.45Q140.09-0.35 139.02-0.18 137.94 0 136.59 0.15 135.24 0.3 133.67 0.43 132.09 0.55 130.54 0.55L130.54 0.55Q128.34 0.55 126.49 0.1 124.64-0.35 123.29-1.33 121.94-2.3 121.19-3.9 120.44-5.5 120.44-7.75L120.44-7.75Q120.44-9.9 121.32-11.45 122.19-13 123.69-13.95 125.19-14.9 127.19-15.35 129.19-15.8 131.39-15.8L131.39-15.8Q132.09-15.8 132.84-15.73 133.59-15.65 134.27-15.53 134.94-15.4 135.44-15.3 135.94-15.2 136.14-15.15L136.14-15.15 136.14-16.45Q136.14-17.6 135.89-18.73 135.64-19.85 134.99-20.73 134.34-21.6 133.22-22.13 132.09-22.65 130.29-22.65L130.29-22.65Q127.99-22.65 126.27-22.33 124.54-22 123.69-21.65L123.69-21.65 123.14-25.5Q124.04-25.9 126.14-26.28 128.24-26.65 130.69-26.65ZM148.39 0L148.39-25.25Q149.99-25.65 152.64-26.1 155.29-26.55 158.74-26.55L158.74-26.55Q161.84-26.55 163.89-25.68 165.94-24.8 167.17-23.23 168.39-21.65 168.89-19.45 169.39-17.25 169.39-14.6L169.39-14.6 169.39 0 164.74 0 164.74-13.6Q164.74-16 164.42-17.7 164.09-19.4 163.34-20.45 162.59-21.5 161.34-21.98 160.09-22.45 158.24-22.45L158.24-22.45Q157.49-22.45 156.69-22.4 155.89-22.35 155.17-22.28 154.44-22.2 153.87-22.1 153.29-22 153.04-21.95L153.04-21.95 153.04 0 148.39 0ZM181.44-34.05L181.44-26 191.29-26 191.29-22.1 181.44-22.1 181.44-10.1Q181.44-8.15 181.74-6.88 182.04-5.6 182.64-4.88 183.24-4.15 184.14-3.85 185.04-3.55 186.24-3.55L186.24-3.55Q188.34-3.55 189.61-4.03 190.89-4.5 191.39-4.7L191.39-4.7 192.29-0.85Q191.59-0.5 189.84 0.03 188.09 0.55 185.84 0.55L185.84 0.55Q183.19 0.55 181.46-0.13 179.74-0.8 178.69-2.15 177.64-3.5 177.21-5.48 176.79-7.45 176.79-10.05L176.79-10.05 176.79-33.25 181.44-34.05ZM193.99-34.65L220.64-34.65 220.64-30.45 209.74-30.45 209.74 0 204.89 0 204.89-30.45 193.99-30.45 193.99-34.65ZM245.63-13L245.63-13Q245.63-9.9 244.73-7.4 243.83-4.9 242.21-3.1 240.58-1.3 238.33-0.33 236.08 0.65 233.43 0.65L233.43 0.65Q230.78 0.65 228.53-0.33 226.28-1.3 224.66-3.1 223.03-4.9 222.13-7.4 221.23-9.9 221.23-13L221.23-13Q221.23-16.05 222.13-18.57 223.03-21.1 224.66-22.9 226.28-24.7 228.53-25.68 230.78-26.65 233.43-26.65L233.43-26.65Q236.08-26.65 238.33-25.68 240.58-24.7 242.21-22.9 243.83-21.1 244.73-18.57 245.63-16.05 245.63-13ZM240.78-13L240.78-13Q240.78-17.4 238.81-19.98 236.83-22.55 233.43-22.55L233.43-22.55Q230.03-22.55 228.06-19.98 226.08-17.4 226.08-13L226.08-13Q226.08-8.6 228.06-6.03 230.03-3.45 233.43-3.45L233.43-3.45Q236.83-3.45 238.81-6.03 240.78-8.6 240.78-13ZM248.98-34.65L275.63-34.65 275.63-30.45 264.73-30.45 264.73 0 259.88 0 259.88-30.45 248.98-30.45 248.98-34.65ZM288.03-26.55L288.03-26.55Q288.63-26.55 289.4-26.48 290.18-26.4 290.93-26.28 291.68-26.15 292.3-26.03 292.93-25.9 293.23-25.8L293.23-25.8 292.43-21.75Q291.88-21.95 290.6-22.23 289.33-22.5 287.33-22.5L287.33-22.5Q286.03-22.5 284.75-22.23 283.48-21.95 283.08-21.85L283.08-21.85 283.08 0 278.43 0 278.43-24.9Q280.08-25.5 282.53-26.03 284.98-26.55 288.03-26.55ZM306.53-3.35L306.53-3.35Q308.18-3.35 309.45-3.43 310.73-3.5 311.58-3.7L311.58-3.7 311.58-11.45Q311.08-11.7 309.95-11.88 308.83-12.05 307.23-12.05L307.23-12.05Q306.18-12.05 305-11.9 303.83-11.75 302.85-11.28 301.88-10.8 301.23-9.98 300.58-9.15 300.58-7.8L300.58-7.8Q300.58-5.3 302.18-4.33 303.78-3.35 306.53-3.35ZM306.13-26.65L306.13-26.65Q308.93-26.65 310.85-25.93 312.78-25.2 313.95-23.88 315.13-22.55 315.63-20.73 316.13-18.9 316.13-16.7L316.13-16.7 316.13-0.45Q315.53-0.35 314.45-0.18 313.38 0 312.03 0.15 310.68 0.3 309.1 0.43 307.53 0.55 305.98 0.55L305.98 0.55Q303.78 0.55 301.93 0.1 300.08-0.35 298.73-1.33 297.38-2.3 296.63-3.9 295.88-5.5 295.88-7.75L295.88-7.75Q295.88-9.9 296.75-11.45 297.63-13 299.13-13.95 300.63-14.9 302.63-15.35 304.63-15.8 306.83-15.8L306.83-15.8Q307.53-15.8 308.28-15.73 309.03-15.65 309.7-15.53 310.38-15.4 310.88-15.3 311.38-15.2 311.58-15.15L311.58-15.15 311.58-16.45Q311.58-17.6 311.33-18.73 311.08-19.85 310.43-20.73 309.78-21.6 308.65-22.13 307.53-22.65 305.73-22.65L305.73-22.65Q303.43-22.65 301.7-22.33 299.98-22 299.13-21.65L299.13-21.65 298.58-25.5Q299.48-25.9 301.58-26.28 303.68-26.65 306.13-26.65ZM338.57-26L343.37-26Q341.42-18.7 338.8-12 336.17-5.3 333.72 0L333.72 0 329.52 0Q327.07-5.3 324.45-12 321.82-18.7 319.87-26L319.87-26 324.87-26Q325.47-23.55 326.3-20.78 327.12-18 328.05-15.28 328.97-12.55 329.92-10 330.87-7.45 331.72-5.45L331.72-5.45Q332.57-7.45 333.52-10 334.47-12.55 335.4-15.28 336.32-18 337.15-20.78 337.97-23.55 338.57-26L338.57-26ZM346.02-12.95L346.02-12.95Q346.02-16.4 347.02-18.98 348.02-21.55 349.67-23.25 351.32-24.95 353.47-25.8 355.62-26.65 357.87-26.65L357.87-26.65Q363.12-26.65 365.92-23.38 368.72-20.1 368.72-13.4L368.72-13.4Q368.72-13.1 368.72-12.63 368.72-12.15 368.67-11.75L368.67-11.75 350.87-11.75Q351.17-7.7 353.22-5.6 355.27-3.5 359.62-3.5L359.62-3.5Q362.07-3.5 363.75-3.93 365.42-4.35 366.27-4.75L366.27-4.75 366.92-0.85Q366.07-0.4 363.95 0.1 361.82 0.6 359.12 0.6L359.12 0.6Q355.72 0.6 353.25-0.43 350.77-1.45 349.17-3.25 347.57-5.05 346.8-7.53 346.02-10 346.02-12.95ZM350.97-15.5L363.87-15.5Q363.92-18.65 362.3-20.68 360.67-22.7 357.82-22.7L357.82-22.7Q356.22-22.7 355-22.08 353.77-21.45 352.92-20.45 352.07-19.45 351.6-18.15 351.12-16.85 350.97-15.5L350.97-15.5ZM383.87-3.4L383.22 0.5Q378.92 0.4 377.12-1.35 375.32-3.1 375.32-6.8L375.32-6.8 375.32-38 379.97-38.8 379.97-7.55Q379.97-6.4 380.17-5.65 380.37-4.9 380.82-4.45 381.27-4 382.02-3.78 382.77-3.55 383.87-3.4L383.87-3.4Z" opacity="1" transform="matrix(1,0,0,1,0,0)" fill="#8abe53" class="wordmark-text-0" data-fill-palette-color="primary" id="text-0"></path></svg></g></svg></g></svg></g></svg></g><g transform="matrix(1,0,0,1,156.67137612233037,0)"><svg viewBox="0 0 82.17724775533928 56.37571463529414" height="56.37571463529414" width="82.17724775533928"><g><svg xmlns="http://www.w3.org/2000/svg" xmlns:xlink="http://www.w3.org/1999/xlink" version="1.1" x="8" y="0" viewBox="1 8.3 97.9 83.4" style="enable-background:new 0 0 100 100;" xml:space="preserve" height="56.37571463529414" width="66.17724775533928" class="icon-icon-0" data-fill-palette-color="accent" id="icon-0"><path d="M30.8 90.9l7.7-2.5L30.8 86l1.1-3.6 9.2 2.9L36.9 80l4.7-6.9-1.1-1.7 1.9-2.8 1.1 1.7 1.4-2 2.4 3.5 0.9-1.4 2.3 3.4-0.9 1.4 3.2 4.8-4.1 5.3 9-2.9 1.1 3.6L51 88.5l7.7 2.5-0.2 0.7H78L44.8 8.3 11.6 91.7H31L30.8 90.9zM46.4 65l1.3 1.9-1.3 1.9-1.3-1.9L46.4 65z" fill="#8abe53" data-fill-palette-color="accent"></path><polygon points="44.8,90.5 40.9,91.7 44.8,91.7 48.6,91.7 " fill="#8abe53" data-fill-palette-color="accent"></polygon><polygon points="90,57.4 81,79.9 90,79.9 98.9,79.9 " fill="#8abe53" data-fill-palette-color="accent"></polygon><polygon points="6.9,30.2 1,45.1 6.9,45.1 12.8,45.1 " fill="#8abe53" data-fill-palette-color="accent"></polygon><polygon points="31.5,39 24.7,22 2.3,78 15.9,78 " fill="#8abe53" data-fill-palette-color="accent"></polygon><polygon points="70.7,70.5 82.1,70.5 61.9,19.6 56.2,34 " fill="#8abe53" data-fill-palette-color="accent"></polygon></svg></g></svg></g><g><rect width="156.67137612233034" height="3.6787410459828713" y="51.69697358931126" x="238.84862387766964" fill="#8abe53" data-fill-palette-color="accent"></rect><rect width="156.67137612233034" height="3.6787410459828713" y="51.69697358931126" x="2.842170943040401e-14" fill="#8abe53" data-fill-palette-color="accent"></rect><rect width="156.67137612233034" height="3.6787410459828713" y="44.33949149734552" x="238.84862387766964" fill="#8abe53" data-fill-palette-color="accent"></rect><rect width="156.67137612233034" height="3.6787410459828713" y="44.33949149734552" x="2.842170943040401e-14" fill="#8abe53" data-fill-palette-color="accent"></rect></g></svg></g><defs></defs></svg><rect width="395.52" height="106.79877385637649" fill="none" stroke="none" visibility="hidden"></rect></g></svg></g></svg>